<svg  xmlns="http://www.w3.org/2000/svg"
style="position: absolute; visibility:hidden; width: 0;height: 0">
<symbol id="headphone" viewBox="0 0 92 84">
  <path d="M67.1667 54.3333V71H58.8333V54.3333H67.1667ZM17.1667 54.3333V71H13C10.7083 71 8.83333 69.125 8.83333 66.8333V54.3333H17.1667ZM38 0.166626C17.2917 0.166626 0.5 16.9583 0.5 37.6666V66.8333C0.5 73.75 6.08333 79.3333 13 79.3333H25.5V46H8.83333V37.6666C8.83333 21.5416 21.875 8.49996 38 8.49996C54.125 8.49996 67.1667 21.5416 67.1667 37.6666V46H50.5V79.3333H67.1667V83.5H38V91.8333H63C69.9167 91.8333 75.5 86.25 75.5 79.3333V37.6666C75.5 16.9583 58.7083 0.166626 38 0.166626Z" fill="#3077C6"/>
</symbol>
<symbol id="communicate" viewBox="0 0 84 84">
  <path d="M54.5 8.66671V37.8334H13.5417L8.66666 42.7084V8.66671H54.5ZM58.6667 0.333374H4.5C2.20833 0.333374 0.333328 2.20837 0.333328 4.50004V62.8334L17 46.1667H58.6667C60.9583 46.1667 62.8333 44.2917 62.8333 42V4.50004C62.8333 2.20837 60.9583 0.333374 58.6667 0.333374ZM79.5 17H71.1667V54.5H17V62.8334C17 65.125 18.875 67 21.1667 67H67L83.6667 83.6667V21.1667C83.6667 18.875 81.7917 17 79.5 17Z" fill="#3077C6"/>
</symbol>
<symbol id="Book" viewBox="0 0 100 68">
  <path
    d="M16.6667 8.99996H91.6667V0.666626H16.6667C12.0833 0.666626 8.33333 4.41663 8.33333 8.99996V54.8333H0V67.3333H58.3333V54.8333H16.6667V8.99996ZM95.8333 17.3333H70.8333C68.5417 17.3333 66.6667 19.2083 66.6667 21.5V63.1666C66.6667 65.4583 68.5417 67.3333 70.8333 67.3333H95.8333C98.125 67.3333 100 65.4583 100 63.1666V21.5C100 19.2083 98.125 17.3333 95.8333 17.3333ZM91.6667 54.8333H75V25.6666H91.6667V54.8333Z"
    fill="#3077C6" />
</symbol>
<symbol id="like" viewBox="0 0 92 84">
  <path
    d="M83.5 29.3333H57.2083L61.1667 10.2916L61.2917 8.95829C61.2917 7.24996 60.5833 5.66663 59.4583 4.54163L55.0417 0.166626L27.625 27.625C26.0833 29.125 25.1667 31.2083 25.1667 33.5V75.1666C25.1667 79.75 28.9167 83.5 33.5 83.5H71C74.4583 83.5 77.4167 81.4166 78.6667 78.4166L91.25 49.0416C91.625 48.0833 91.8333 47.0833 91.8333 46V37.6666C91.8333 33.0833 88.0833 29.3333 83.5 29.3333ZM83.5 46L71 75.1666H33.5V33.5L51.5833 15.4166L46.9583 37.6666H83.5V46ZM0.166656 33.5H16.8333V83.5H0.166656V33.5Z"
    fill="#3077C6" />
</symbol>
<symbol id="triphouse" viewBox="0 0 205 40">
  <path d="M0.840915 11.0236C0.634374 10.6937 0.442587 10.2437 0.265552 9.67379C0.0885173 9.10386 0 8.50394 0 7.87402C0 6.70416 0.250799 5.86427 0.752398 5.35433C1.2835 4.84439 1.96213 4.58943 2.7883 4.58943H22.0851C22.2916 4.91938 22.4834 5.36933 22.6604 5.93926C22.8375 6.50919 22.926 7.10911 22.926 7.73903C22.926 8.90889 22.6604 9.74878 22.1293 10.2587C21.6277 10.7687 20.9639 11.0236 20.1377 11.0236H15.225V31.811C14.9004 31.901 14.3841 31.991 13.6759 32.081C12.9973 32.171 12.3187 32.216 11.64 32.216C10.9614 32.216 10.3565 32.156 9.82543 32.036C9.32383 31.946 8.896 31.766 8.54193 31.4961C8.18786 31.2261 7.9223 30.8511 7.74527 30.3712C7.56823 29.8913 7.47972 29.2613 7.47972 28.4814V11.0236H0.840915Z" fill="#3077C6"/>
  <path d="M31.8497 31.946C31.5546 32.036 31.0825 32.126 30.4334 32.216C29.8138 32.306 29.1646 32.351 28.486 32.351C27.8369 32.351 27.2467 32.306 26.7156 32.216C26.214 32.126 25.7862 31.946 25.4321 31.676C25.0781 31.4061 24.7978 31.0461 24.5912 30.5962C24.4142 30.1162 24.3257 29.5013 24.3257 28.7514V15.2531C24.3257 14.5632 24.4437 13.9783 24.6797 13.4983C24.9453 12.9884 25.3141 12.5384 25.7862 12.1485C26.2583 11.7585 26.8337 11.4136 27.5123 11.1136C28.2204 10.7837 28.9728 10.4987 29.7695 10.2587C30.5662 10.0187 31.3923 9.83877 32.248 9.71878C33.1036 9.5688 33.9593 9.49381 34.815 9.49381C36.2313 9.49381 37.3525 9.77878 38.1786 10.3487C39.0048 10.8886 39.4179 11.7885 39.4179 13.0484C39.4179 13.4683 39.3589 13.8883 39.2409 14.3082C39.1228 14.6982 38.9753 15.0581 38.7983 15.3881C38.1786 15.3881 37.5443 15.4181 36.8951 15.4781C36.246 15.5381 35.6116 15.628 34.992 15.748C34.3724 15.868 33.7823 16.003 33.2217 16.153C32.6906 16.273 32.2332 16.4229 31.8497 16.6029V31.946Z" fill="#3077C6"/>
  <path d="M42.3448 4.04949C42.3448 2.90964 42.7137 1.94976 43.4513 1.16985C44.2185 0.389951 45.2216 0 46.4609 0C47.7001 0 48.6886 0.389951 49.4262 1.16985C50.1934 1.94976 50.577 2.90964 50.577 4.04949C50.577 5.18935 50.1934 6.14923 49.4262 6.92913C48.6886 7.70904 47.7001 8.09899 46.4609 8.09899C45.2216 8.09899 44.2185 7.70904 43.4513 6.92913C42.7137 6.14923 42.3448 5.18935 42.3448 4.04949ZM50.2229 31.946C49.8983 32.006 49.4115 32.081 48.7623 32.171C48.1427 32.291 47.5084 32.351 46.8592 32.351C46.2101 32.351 45.62 32.306 45.0889 32.216C44.5873 32.126 44.1594 31.946 43.8054 31.676C43.4513 31.4061 43.171 31.0461 42.9645 30.5962C42.7874 30.1162 42.6989 29.5013 42.6989 28.7514V10.4387C43.0235 10.3787 43.4956 10.3037 44.1152 10.2137C44.7643 10.0937 45.4134 10.0337 46.0626 10.0337C46.7117 10.0337 47.2871 10.0787 47.7887 10.1687C48.3198 10.2587 48.7623 10.4387 49.1164 10.7087C49.4705 10.9786 49.736 11.3536 49.9131 11.8335C50.1196 12.2835 50.2229 12.8834 50.2229 13.6333V31.946Z" fill="#3077C6"/>
  <path d="M64.8825 9.44882C66.6529 9.44882 68.2905 9.68879 69.7952 10.1687C71.3296 10.6187 72.6426 11.3236 73.7343 12.2835C74.826 13.2433 75.6816 14.4582 76.3013 15.928C76.9209 17.3678 77.2307 19.0926 77.2307 21.1024C77.2307 23.0221 76.9652 24.7019 76.4341 26.1417C75.9029 27.5816 75.1506 28.7964 74.1769 29.7863C73.2032 30.7462 72.0229 31.4661 70.6362 31.946C69.2789 32.4259 67.7593 32.6659 66.0775 32.6659C64.8088 32.6659 63.6285 32.4709 62.5368 32.081V39.5501C62.2418 39.64 61.7697 39.73 61.1205 39.82C60.4714 39.94 59.8075 40 59.1289 40C58.4798 40 57.8897 39.955 57.3586 39.865C56.857 39.775 56.4291 39.5951 56.0751 39.3251C55.721 39.0551 55.4554 38.6802 55.2784 38.2002C55.1014 37.7503 55.0128 37.1504 55.0128 36.4004V14.8031C55.0128 13.9933 55.1751 13.3333 55.4997 12.8234C55.8538 12.3135 56.3259 11.8485 56.916 11.4286C57.8307 10.8286 58.9666 10.3487 60.3239 9.98875C61.6812 9.6288 63.2007 9.44882 64.8825 9.44882ZM64.9711 26.6367C68.0101 26.6367 69.5297 24.7919 69.5297 21.1024C69.5297 19.1826 69.1461 17.7578 68.379 16.8279C67.6413 15.898 66.5644 15.4331 65.1481 15.4331C64.5875 15.4331 64.0859 15.5081 63.6433 15.658C63.2007 15.778 62.8171 15.928 62.4926 16.108V26.0067C62.8466 26.1867 63.2302 26.3367 63.6433 26.4567C64.0564 26.5767 64.499 26.6367 64.9711 26.6367Z" fill="#3077C6"/>
  <path d="M105.466 31.811C105.141 31.901 104.625 31.991 103.917 32.081C103.238 32.171 102.56 32.216 101.881 32.216C101.202 32.216 100.598 32.156 100.066 32.036C99.5649 31.946 99.137 31.766 98.783 31.4961C98.4289 31.2261 98.1633 30.8511 97.9863 30.3712C97.8093 29.8913 97.7207 29.2613 97.7207 28.4814V21.4623H89.2231V31.811C88.8985 31.901 88.3822 31.991 87.674 32.081C86.9954 32.171 86.3168 32.216 85.6381 32.216C84.9595 32.216 84.3546 32.156 83.8235 32.036C83.3219 31.946 82.8941 31.766 82.54 31.4961C82.1859 31.2261 81.9204 30.8511 81.7434 30.3712C81.5663 29.8913 81.4778 29.2613 81.4778 28.4814V4.72441C81.8024 4.66442 82.3187 4.58943 83.0269 4.49944C83.735 4.37945 84.4136 4.31946 85.0628 4.31946C85.7414 4.31946 86.3315 4.37945 86.8331 4.49944C87.3642 4.58943 87.8068 4.7694 88.1609 5.03937C88.5149 5.30934 88.7805 5.68429 88.9575 6.16423C89.1346 6.64417 89.2231 7.27409 89.2231 8.05399V15.2531H97.7207V4.72441C98.0453 4.66442 98.5617 4.58943 99.2698 4.49944C99.9779 4.37945 100.657 4.31946 101.306 4.31946C101.984 4.31946 102.574 4.37945 103.076 4.49944C103.607 4.58943 104.05 4.7694 104.404 5.03937C104.758 5.30934 105.023 5.68429 105.2 6.16423C105.377 6.64417 105.466 7.27409 105.466 8.05399V31.811Z" fill="#3077C6"/>
  <path d="M132.901 21.0574C132.901 22.9171 132.621 24.5819 132.06 26.0517C131.499 27.4916 130.703 28.7064 129.67 29.6963C128.667 30.6862 127.457 31.4361 126.041 31.946C124.624 32.4559 123.046 32.7109 121.305 32.7109C119.564 32.7109 117.986 32.4409 116.569 31.901C115.153 31.3611 113.929 30.5962 112.896 29.6063C111.893 28.5864 111.111 27.3566 110.55 25.9168C109.99 24.4769 109.709 22.8571 109.709 21.0574C109.709 19.2876 109.99 17.6828 110.55 16.243C111.111 14.8031 111.893 13.5883 112.896 12.5984C113.929 11.5786 115.153 10.7986 116.569 10.2587C117.986 9.71878 119.564 9.44882 121.305 9.44882C123.046 9.44882 124.624 9.73378 126.041 10.3037C127.457 10.8436 128.667 11.6235 129.67 12.6434C130.703 13.6333 131.499 14.8481 132.06 16.288C132.621 17.7278 132.901 19.3176 132.901 21.0574ZM117.41 21.0574C117.41 22.8871 117.75 24.297 118.428 25.2868C119.136 26.2467 120.11 26.7267 121.349 26.7267C122.589 26.7267 123.533 26.2317 124.182 25.2418C124.861 24.252 125.2 22.8571 125.2 21.0574C125.2 19.2576 124.861 17.8778 124.182 16.9179C123.503 15.928 122.544 15.4331 121.305 15.4331C120.066 15.4331 119.107 15.928 118.428 16.9179C117.75 17.8778 117.41 19.2576 117.41 21.0574Z" fill="#3077C6"/>
  <path d="M136.572 10.4387C136.867 10.3487 137.324 10.2587 137.944 10.1687C138.593 10.0787 139.257 10.0337 139.935 10.0337C140.584 10.0337 141.16 10.0787 141.661 10.1687C142.192 10.2587 142.635 10.4387 142.989 10.7087C143.343 10.9786 143.609 11.3536 143.786 11.8335C143.992 12.2835 144.096 12.8834 144.096 13.6333V23.3071C144.096 24.5369 144.391 25.4218 144.981 25.9618C145.571 26.4717 146.426 26.7267 147.548 26.7267C148.226 26.7267 148.772 26.6667 149.185 26.5467C149.628 26.4267 149.967 26.3067 150.203 26.1867V10.4387C150.498 10.3487 150.956 10.2587 151.575 10.1687C152.224 10.0787 152.888 10.0337 153.567 10.0337C154.216 10.0337 154.791 10.0787 155.293 10.1687C155.824 10.2587 156.267 10.4387 156.621 10.7087C156.975 10.9786 157.24 11.3536 157.417 11.8335C157.624 12.2835 157.727 12.8834 157.727 13.6333V27.3116C157.727 28.8114 157.108 29.9363 155.868 30.6862C154.836 31.3461 153.596 31.841 152.151 32.171C150.734 32.5309 149.185 32.7109 147.503 32.7109C145.91 32.7109 144.435 32.5309 143.078 32.171C141.75 31.811 140.599 31.2561 139.625 30.5062C138.652 29.7563 137.899 28.7964 137.368 27.6265C136.837 26.4267 136.572 24.9869 136.572 23.3071V10.4387Z" fill="#3077C6"/>
  <path d="M180.478 25.4668C180.478 27.7465 179.637 29.5313 177.955 30.8211C176.273 32.111 173.794 32.7559 170.519 32.7559C169.28 32.7559 168.129 32.6659 167.067 32.4859C166.005 32.306 165.09 32.036 164.323 31.676C163.586 31.2861 162.995 30.8061 162.553 30.2362C162.14 29.6663 161.933 28.9914 161.933 28.2115C161.933 27.4916 162.081 26.8916 162.376 26.4117C162.671 25.9018 163.025 25.4818 163.438 25.1519C164.294 25.6318 165.267 26.0667 166.359 26.4567C167.48 26.8166 168.764 26.9966 170.21 26.9966C171.124 26.9966 171.818 26.8616 172.29 26.5917C172.791 26.3217 173.042 25.9618 173.042 25.5118C173.042 25.0919 172.865 24.7619 172.511 24.5219C172.157 24.282 171.567 24.087 170.741 23.937L169.413 23.667C166.846 23.1571 164.928 22.3622 163.659 21.2823C162.42 20.1725 161.8 18.5977 161.8 16.5579C161.8 15.4481 162.036 14.4432 162.509 13.5433C162.981 12.6434 163.645 11.8935 164.5 11.2936C165.356 10.6937 166.374 10.2287 167.554 9.89876C168.764 9.5688 170.092 9.40382 171.537 9.40382C172.629 9.40382 173.647 9.49381 174.591 9.67379C175.565 9.82377 176.406 10.0637 177.114 10.3937C177.822 10.7237 178.383 11.1586 178.796 11.6985C179.209 12.2085 179.415 12.8234 179.415 13.5433C179.415 14.2332 179.283 14.8331 179.017 15.3431C178.781 15.823 178.471 16.228 178.088 16.5579C177.852 16.4079 177.497 16.258 177.025 16.108C176.553 15.928 176.037 15.778 175.476 15.658C174.916 15.5081 174.34 15.3881 173.75 15.2981C173.19 15.2081 172.673 15.1631 172.201 15.1631C171.227 15.1631 170.475 15.2831 169.944 15.5231C169.413 15.733 169.147 16.078 169.147 16.5579C169.147 16.8879 169.295 17.1579 169.59 17.3678C169.885 17.5778 170.446 17.7728 171.272 17.9528L172.644 18.2677C175.476 18.9276 177.483 19.8425 178.663 21.0124C179.873 22.1522 180.478 23.637 180.478 25.4668Z" fill="#3077C6"/>
  <path d="M195.706 32.7109C193.965 32.7109 192.342 32.4709 190.837 31.991C189.362 31.4811 188.064 30.7312 186.942 29.7413C185.851 28.7514 184.98 27.5066 184.331 26.0067C183.712 24.5069 183.402 22.7522 183.402 20.7424C183.402 18.7627 183.712 17.0679 184.331 15.658C184.98 14.2182 185.821 13.0484 186.854 12.1485C187.887 11.2186 189.067 10.5437 190.395 10.1237C191.722 9.67379 193.08 9.44882 194.466 9.44882C196.03 9.44882 197.447 9.68879 198.715 10.1687C200.014 10.6487 201.12 11.3086 202.035 12.1485C202.979 12.9884 203.702 13.9933 204.203 15.1631C204.734 16.333 205 17.6078 205 18.9876C205 20.0075 204.72 20.7874 204.159 21.3273C203.598 21.8673 202.817 22.2122 201.813 22.3622L190.881 24.027C191.206 25.0169 191.87 25.7668 192.873 26.2767C193.876 26.7567 195.027 26.9966 196.325 26.9966C197.535 26.9966 198.671 26.8466 199.733 26.5467C200.825 26.2167 201.71 25.8418 202.389 25.4218C202.861 25.7218 203.259 26.1417 203.584 26.6817C203.908 27.2216 204.071 27.7915 204.071 28.3915C204.071 29.7413 203.451 30.7462 202.212 31.4061C201.268 31.916 200.205 32.261 199.025 32.4409C197.845 32.6209 196.738 32.7109 195.706 32.7109ZM194.466 15.0281C193.758 15.0281 193.139 15.1481 192.608 15.3881C192.106 15.628 191.693 15.943 191.368 16.333C191.044 16.6929 190.793 17.1129 190.616 17.5928C190.468 18.0427 190.38 18.5077 190.35 18.9876L197.919 17.7278C197.83 17.1279 197.506 16.5279 196.945 15.928C196.384 15.3281 195.558 15.0281 194.466 15.0281Z" fill="#3077C6"/>
</symbol> 
<symbol id="small-logo" viewBox="0 0 54 12">
  <path d="M0.585805 3.60941C0.53214 3.52153 0.482307 3.4017 0.436308 3.24991C0.390309 3.09812 0.36731 2.93835 0.36731 2.77058C0.36731 2.45902 0.432475 2.23533 0.562806 2.09952C0.700803 1.96371 0.877133 1.89581 1.09179 1.89581H6.10569C6.15936 1.98369 6.20919 2.10352 6.25519 2.2553C6.30119 2.40709 6.32419 2.56687 6.32419 2.73463C6.32419 3.0462 6.25519 3.26988 6.11719 3.40569C5.98686 3.5415 5.81437 3.60941 5.5997 3.60941H4.32323V9.14564C4.2389 9.16961 4.10473 9.19357 3.92074 9.21754C3.74441 9.24151 3.56808 9.25349 3.39175 9.25349C3.21542 9.25349 3.05825 9.23751 2.92026 9.20556C2.78993 9.18159 2.67876 9.13366 2.58676 9.06176C2.49477 8.98986 2.42577 8.89 2.37977 8.76218C2.33377 8.63436 2.31077 8.46659 2.31077 8.25889V3.60941H0.585805Z" fill="white"/>
  <path d="M8.64283 9.18159C8.56616 9.20556 8.4435 9.22952 8.27484 9.25349C8.11384 9.27746 7.94518 9.28944 7.76885 9.28944C7.60018 9.28944 7.44685 9.27746 7.30886 9.25349C7.17853 9.22952 7.06736 9.18159 6.97536 9.10969C6.88336 9.03779 6.81053 8.94193 6.75687 8.8221C6.71087 8.69428 6.68787 8.53051 6.68787 8.33079V4.73583C6.68787 4.55208 6.71853 4.3963 6.77987 4.26848C6.84887 4.13267 6.9447 4.01284 7.06736 3.90899C7.19002 3.80513 7.33952 3.71326 7.51585 3.63337C7.69985 3.5455 7.89534 3.4696 8.10234 3.40569C8.30934 3.34178 8.524 3.29385 8.74633 3.26189C8.96866 3.22195 9.19098 3.20198 9.41331 3.20198C9.78131 3.20198 10.0726 3.27787 10.2873 3.42966C10.502 3.57346 10.6093 3.81312 10.6093 4.14865C10.6093 4.26049 10.594 4.37234 10.5633 4.48418C10.5326 4.58803 10.4943 4.6839 10.4483 4.77178C10.2873 4.77178 10.1225 4.77976 9.9538 4.79574C9.78514 4.81172 9.62031 4.83569 9.45931 4.86764C9.29832 4.8996 9.14499 4.93555 8.99932 4.97549C8.86132 5.00745 8.74249 5.04739 8.64283 5.09532V9.18159Z" fill="white"/>
  <path d="M11.3698 1.75201C11.3698 1.44844 11.4656 1.19279 11.6573 0.985086C11.8566 0.777377 12.1173 0.673523 12.4393 0.673523C12.7613 0.673523 13.0181 0.777377 13.2098 0.985086C13.4091 1.19279 13.5088 1.44844 13.5088 1.75201C13.5088 2.05558 13.4091 2.31123 13.2098 2.51893C13.0181 2.72664 12.7613 2.8305 12.4393 2.8305C12.1173 2.8305 11.8566 2.72664 11.6573 2.51893C11.4656 2.31123 11.3698 2.05558 11.3698 1.75201ZM13.4168 9.18159C13.3324 9.19757 13.2059 9.21754 13.0373 9.24151C12.8763 9.27346 12.7114 9.28944 12.5428 9.28944C12.3741 9.28944 12.2208 9.27746 12.0828 9.25349C11.9525 9.22952 11.8413 9.18159 11.7493 9.10969C11.6573 9.03779 11.5845 8.94193 11.5308 8.8221C11.4848 8.69428 11.4618 8.53051 11.4618 8.33079V3.45362C11.5461 3.43765 11.6688 3.41767 11.8298 3.39371C11.9985 3.36175 12.1671 3.34578 12.3358 3.34578C12.5044 3.34578 12.6539 3.35776 12.7843 3.38173C12.9223 3.40569 13.0373 3.45362 13.1293 3.52552C13.2213 3.59742 13.2903 3.69728 13.3363 3.8251C13.3899 3.94494 13.4168 4.10471 13.4168 4.30443V9.18159Z" fill="white"/>
  <path d="M17.2258 3.18999C17.6858 3.18999 18.1113 3.2539 18.5023 3.38173C18.9009 3.50156 19.2421 3.68929 19.5257 3.94494C19.8094 4.20058 20.0317 4.52412 20.1927 4.91557C20.3537 5.29904 20.4342 5.75839 20.4342 6.29364C20.4342 6.80492 20.3652 7.2523 20.2272 7.63576C20.0892 8.01922 19.8937 8.34277 19.6407 8.6064C19.3877 8.86204 19.0811 9.05377 18.7208 9.18159C18.3681 9.30941 17.9733 9.37332 17.5363 9.37332C17.2066 9.37332 16.9 9.3214 16.6163 9.21754V11.2068C16.5396 11.2307 16.417 11.2547 16.2483 11.2787C16.0796 11.3106 15.9071 11.3266 15.7308 11.3266C15.5622 11.3266 15.4088 11.3146 15.2708 11.2906C15.1405 11.2667 15.0293 11.2187 14.9373 11.1468C14.8453 11.0749 14.7763 10.9751 14.7303 10.8473C14.6843 10.7274 14.6613 10.5676 14.6613 10.3679V4.61599C14.6613 4.4003 14.7035 4.22454 14.7878 4.08873C14.8798 3.95292 15.0025 3.8291 15.1558 3.71725C15.3935 3.55748 15.6887 3.42966 16.0413 3.33379C16.394 3.23793 16.7888 3.18999 17.2258 3.18999ZM17.2488 7.76757C18.0384 7.76757 18.4333 7.27626 18.4333 6.29364C18.4333 5.78236 18.3336 5.40289 18.1343 5.15524C17.9426 4.90759 17.6628 4.78376 17.2948 4.78376C17.1491 4.78376 17.0188 4.80373 16.9038 4.84368C16.7888 4.87563 16.6891 4.91557 16.6048 4.96351V7.59981C16.6968 7.64774 16.7965 7.68769 16.9038 7.71964C17.0111 7.7516 17.1261 7.76757 17.2488 7.76757Z" fill="white"/>
  <path d="M27.7706 9.14564C27.6863 9.16961 27.5521 9.19357 27.3681 9.21754C27.1918 9.24151 27.0155 9.25349 26.8391 9.25349C26.6628 9.25349 26.5056 9.23751 26.3677 9.20556C26.2373 9.18159 26.1262 9.13366 26.0342 9.06176C25.9422 8.98986 25.8732 8.89 25.8272 8.76218C25.7812 8.63436 25.7582 8.46659 25.7582 8.25889V6.38951H23.5502V9.14564C23.4659 9.16961 23.3317 9.19357 23.1477 9.21754C22.9714 9.24151 22.7951 9.25349 22.6187 9.25349C22.4424 9.25349 22.2852 9.23751 22.1472 9.20556C22.0169 9.18159 21.9057 9.13366 21.8137 9.06176C21.7217 8.98986 21.6527 8.89 21.6067 8.76218C21.5608 8.63436 21.5378 8.46659 21.5378 8.25889V1.93176C21.6221 1.91578 21.7562 1.89581 21.9402 1.87184C22.1242 1.83989 22.3006 1.82391 22.4692 1.82391C22.6456 1.82391 22.7989 1.83989 22.9292 1.87184C23.0672 1.89581 23.1822 1.94374 23.2742 2.01564C23.3662 2.08754 23.4352 2.1874 23.4812 2.31522C23.5272 2.44304 23.5502 2.61081 23.5502 2.81852V4.73583H25.7582V1.93176C25.8425 1.91578 25.9767 1.89581 26.1607 1.87184C26.3447 1.83989 26.521 1.82391 26.6896 1.82391C26.866 1.82391 27.0193 1.83989 27.1496 1.87184C27.2876 1.89581 27.4026 1.94374 27.4946 2.01564C27.5866 2.08754 27.6556 2.1874 27.7016 2.31522C27.7476 2.44304 27.7706 2.61081 27.7706 2.81852V9.14564Z" fill="white"/>
  <path d="M34.899 6.28166C34.899 6.77696 34.8262 7.22034 34.6805 7.61179C34.5349 7.99526 34.3279 8.3188 34.0596 8.58243C33.7989 8.84606 33.4846 9.04578 33.1166 9.18159C32.7486 9.3174 32.3384 9.38531 31.8861 9.38531C31.4338 9.38531 31.0236 9.31341 30.6556 9.16961C30.2876 9.02581 29.9695 8.8221 29.7011 8.55847C29.4405 8.28685 29.2373 7.95931 29.0917 7.57584C28.946 7.19238 28.8732 6.76099 28.8732 6.28166C28.8732 5.81032 28.946 5.38292 29.0917 4.99946C29.2373 4.61599 29.4405 4.29245 29.7011 4.02882C29.9695 3.7572 30.2876 3.54949 30.6556 3.40569C31.0236 3.26189 31.4338 3.18999 31.8861 3.18999C32.3384 3.18999 32.7486 3.26589 33.1166 3.41767C33.4846 3.56147 33.7989 3.76918 34.0596 4.0408C34.3279 4.30443 34.5349 4.62798 34.6805 5.01144C34.8262 5.3949 34.899 5.81831 34.899 6.28166ZM30.8741 6.28166C30.8741 6.76898 30.9623 7.14445 31.1386 7.40808C31.3226 7.66372 31.5756 7.79154 31.8976 7.79154C32.2196 7.79154 32.4649 7.65973 32.6336 7.3961C32.8099 7.13247 32.8981 6.76099 32.8981 6.28166C32.8981 5.80233 32.8099 5.43485 32.6336 5.1792C32.4573 4.91557 32.2081 4.78376 31.8861 4.78376C31.5641 4.78376 31.3149 4.91557 31.1386 5.1792C30.9623 5.43485 30.8741 5.80233 30.8741 6.28166Z" fill="white"/>
  <path d="M35.8528 3.45362C35.9295 3.42966 36.0483 3.40569 36.2093 3.38173C36.378 3.35776 36.5505 3.34578 36.7268 3.34578C36.8954 3.34578 37.0449 3.35776 37.1753 3.38173C37.3133 3.40569 37.4283 3.45362 37.5203 3.52552C37.6123 3.59742 37.6813 3.69728 37.7273 3.8251C37.7809 3.94494 37.8078 4.10471 37.8078 4.30443V6.88082C37.8078 7.20836 37.8844 7.44403 38.0378 7.58783C38.1911 7.72364 38.4134 7.79154 38.7047 7.79154C38.8811 7.79154 39.0229 7.77556 39.1302 7.74361C39.2452 7.71165 39.3334 7.6797 39.3947 7.64774V3.45362C39.4714 3.42966 39.5902 3.40569 39.7512 3.38173C39.9199 3.35776 40.0924 3.34578 40.2687 3.34578C40.4374 3.34578 40.5869 3.35776 40.7172 3.38173C40.8552 3.40569 40.9702 3.45362 41.0622 3.52552C41.1542 3.59742 41.2232 3.69728 41.2692 3.8251C41.3229 3.94494 41.3497 4.10471 41.3497 4.30443V7.94732C41.3497 8.34676 41.1887 8.64634 40.8667 8.84606C40.5984 9.02182 40.2764 9.15363 39.9007 9.24151C39.5327 9.33737 39.1302 9.38531 38.6932 9.38531C38.2793 9.38531 37.8959 9.33737 37.5433 9.24151C37.1983 9.14564 36.8993 8.99785 36.6463 8.79813C36.3933 8.59841 36.1978 8.34277 36.0598 8.03121C35.9218 7.71165 35.8528 7.32819 35.8528 6.88082V3.45362Z" fill="white"/>
  <path d="M47.2609 7.45601C47.2609 8.06316 47.0424 8.53849 46.6054 8.88201C46.1684 9.22553 45.5245 9.39729 44.6735 9.39729C44.3515 9.39729 44.0525 9.37332 43.7765 9.32539C43.5005 9.27746 43.2628 9.20556 43.0635 9.10969C42.8719 9.00584 42.7185 8.87802 42.6035 8.72623C42.4962 8.57444 42.4425 8.3947 42.4425 8.18699C42.4425 7.99526 42.4809 7.83548 42.5575 7.70766C42.6342 7.57185 42.7262 7.46001 42.8335 7.37213C43.0558 7.49995 43.3088 7.61579 43.5925 7.71964C43.8838 7.81551 44.2173 7.86344 44.593 7.86344C44.8306 7.86344 45.0108 7.82749 45.1335 7.75559C45.2638 7.68369 45.329 7.58783 45.329 7.46799C45.329 7.35615 45.283 7.26828 45.191 7.20436C45.099 7.14045 44.9456 7.08853 44.731 7.04858L44.386 6.97668C43.719 6.84087 43.2207 6.62917 42.891 6.34157C42.569 6.04599 42.408 5.62658 42.408 5.08334C42.408 4.78775 42.4694 4.52013 42.592 4.28046C42.7147 4.0408 42.8872 3.84108 43.1095 3.68131C43.3318 3.52153 43.5963 3.3977 43.903 3.30983C44.2173 3.22195 44.5623 3.17801 44.938 3.17801C45.2216 3.17801 45.4861 3.20198 45.7315 3.24991C45.9845 3.28985 46.203 3.35376 46.3869 3.44164C46.5709 3.52952 46.7166 3.64536 46.8239 3.78915C46.9313 3.92496 46.9849 4.08873 46.9849 4.28046C46.9849 4.46421 46.9504 4.62398 46.8814 4.75979C46.8201 4.88761 46.7396 4.99546 46.6399 5.08334C46.5786 5.0434 46.4866 5.00345 46.3639 4.96351C46.2413 4.91557 46.1071 4.87563 45.9615 4.84368C45.8158 4.80373 45.6663 4.77178 45.513 4.74781C45.3673 4.72384 45.2331 4.71186 45.1105 4.71186C44.8575 4.71186 44.662 4.74382 44.524 4.80773C44.386 4.86365 44.317 4.95552 44.317 5.08334C44.317 5.17122 44.3553 5.24311 44.432 5.29904C44.5087 5.35496 44.6543 5.40689 44.869 5.45482L45.2255 5.5387C45.9615 5.71445 46.4828 5.95811 46.7894 6.26968C47.1038 6.57325 47.2609 6.9687 47.2609 7.45601Z" fill="white"/>
  <path d="M51.2177 9.38531C50.7653 9.38531 50.3437 9.3214 49.9527 9.19357C49.5694 9.05777 49.232 8.85805 48.9407 8.59442C48.657 8.33078 48.4309 7.99925 48.2622 7.59981C48.1012 7.20037 48.0207 6.73303 48.0207 6.19778C48.0207 5.67052 48.1012 5.21915 48.2622 4.84368C48.4309 4.46021 48.6494 4.14865 48.9177 3.90899C49.186 3.66133 49.4927 3.48159 49.8377 3.36974C50.1827 3.24991 50.5353 3.18999 50.8957 3.18999C51.302 3.18999 51.67 3.2539 51.9996 3.38173C52.337 3.50955 52.6245 3.6853 52.8621 3.90899C53.1075 4.13267 53.2953 4.4003 53.4256 4.71186C53.5636 5.02342 53.6326 5.36295 53.6326 5.73043C53.6326 6.00205 53.5598 6.20976 53.4141 6.35356C53.2684 6.49736 53.0653 6.58923 52.8046 6.62917L49.9642 7.07255C50.0485 7.33618 50.221 7.5359 50.4817 7.67171C50.7423 7.79953 51.0413 7.86344 51.3787 7.86344C51.693 7.86344 51.9881 7.8235 52.2641 7.74361C52.5478 7.65573 52.7778 7.55587 52.9541 7.44403C53.0768 7.52392 53.1803 7.63576 53.2646 7.77956C53.3489 7.92336 53.3911 8.07514 53.3911 8.23492C53.3911 8.59442 53.2301 8.86204 52.9081 9.03779C52.6628 9.1736 52.3868 9.26547 52.0801 9.31341C51.7735 9.36134 51.486 9.38531 51.2177 9.38531ZM50.8957 4.67591C50.7117 4.67591 50.5507 4.70787 50.4127 4.77178C50.2823 4.83569 50.175 4.91957 50.0907 5.02342C50.0064 5.11929 49.9412 5.23113 49.8952 5.35895C49.8568 5.47878 49.8339 5.60261 49.8262 5.73043L51.7926 5.3949C51.7696 5.23513 51.6853 5.07535 51.5396 4.91557C51.394 4.7558 51.1793 4.67591 50.8957 4.67591Z" fill="white"/>
</symbol>
<symbol id="triphouse-smal" viewBox="0 0 186 37">
<path d="M1.48 10.36C1.29333 10.0667 1.12 9.66667 0.96 9.16C0.8 8.65333 0.72 8.12 0.72 7.56C0.72 6.52 0.946667 5.77333 1.4 5.32C1.88 4.86667 2.49333 4.64 3.24 4.64H20.68C20.8667 4.93333 21.04 5.33333 21.2 5.84C21.36 6.34667 21.44 6.88 21.44 7.44C21.44 8.48 21.2 9.22667 20.72 9.68C20.2667 10.1333 19.6667 10.36 18.92 10.36H14.48V28.84C14.1867 28.92 13.72 29 13.08 29.08C12.4667 29.16 11.8533 29.2 11.24 29.2C10.6267 29.2 10.08 29.1467 9.6 29.04C9.14667 28.96 8.76 28.8 8.44 28.56C8.12 28.32 7.88 27.9867 7.72 27.56C7.56 27.1333 7.48 26.5733 7.48 25.88V10.36H1.48ZM29.505 28.96C29.2383 29.04 28.8117 29.12 28.225 29.2C27.665 29.28 27.0783 29.32 26.465 29.32C25.8783 29.32 25.345 29.28 24.865 29.2C24.4117 29.12 24.025 28.96 23.705 28.72C23.385 28.48 23.1317 28.16 22.945 27.76C22.785 27.3333 22.705 26.7867 22.705 26.12V14.12C22.705 13.5067 22.8117 12.9867 23.025 12.56C23.265 12.1067 23.5983 11.7067 24.025 11.36C24.4517 11.0133 24.9717 10.7067 25.585 10.44C26.225 10.1467 26.905 9.89333 27.625 9.68C28.345 9.46667 29.0917 9.30667 29.865 9.2C30.6383 9.06667 31.4117 9 32.185 9C33.465 9 34.4783 9.25333 35.225 9.76C35.9717 10.24 36.345 11.04 36.345 12.16C36.345 12.5333 36.2917 12.9067 36.185 13.28C36.0783 13.6267 35.945 13.9467 35.785 14.24C35.225 14.24 34.6517 14.2667 34.065 14.32C33.4783 14.3733 32.905 14.4533 32.345 14.56C31.785 14.6667 31.2517 14.7867 30.745 14.92C30.265 15.0267 29.8517 15.16 29.505 15.32V28.96ZM38.9903 4.16C38.9903 3.14666 39.3236 2.29333 39.9903 1.6C40.6836 0.906665 41.5903 0.559999 42.7103 0.559999C43.8303 0.559999 44.7236 0.906665 45.3903 1.6C46.0836 2.29333 46.4303 3.14666 46.4303 4.16C46.4303 5.17333 46.0836 6.02667 45.3903 6.72C44.7236 7.41333 43.8303 7.76 42.7103 7.76C41.5903 7.76 40.6836 7.41333 39.9903 6.72C39.3236 6.02667 38.9903 5.17333 38.9903 4.16ZM46.1103 28.96C45.817 29.0133 45.377 29.08 44.7903 29.16C44.2303 29.2667 43.657 29.32 43.0703 29.32C42.4836 29.32 41.9503 29.28 41.4703 29.2C41.017 29.12 40.6303 28.96 40.3103 28.72C39.9903 28.48 39.737 28.16 39.5503 27.76C39.3903 27.3333 39.3103 26.7867 39.3103 26.12V9.84C39.6036 9.78667 40.0303 9.72 40.5903 9.64C41.177 9.53333 41.7636 9.48 42.3503 9.48C42.937 9.48 43.457 9.52 43.9103 9.6C44.3903 9.68 44.7903 9.84 45.1103 10.08C45.4303 10.32 45.6703 10.6533 45.8303 11.08C46.017 11.48 46.1103 12.0133 46.1103 12.68V28.96ZM59.3594 8.96C60.9594 8.96 62.4394 9.17333 63.7994 9.6C65.186 10 66.3727 10.6267 67.3594 11.48C68.346 12.3333 69.1194 13.4133 69.6794 14.72C70.2394 16 70.5194 17.5333 70.5194 19.32C70.5194 21.0267 70.2794 22.52 69.7994 23.8C69.3194 25.08 68.6394 26.16 67.7594 27.04C66.8794 27.8933 65.8127 28.5333 64.5594 28.96C63.3327 29.3867 61.9594 29.6 60.4394 29.6C59.2927 29.6 58.226 29.4267 57.2394 29.08V35.72C56.9727 35.8 56.546 35.88 55.9594 35.96C55.3727 36.0667 54.7727 36.12 54.1594 36.12C53.5727 36.12 53.0394 36.08 52.5594 36C52.106 35.92 51.7194 35.76 51.3994 35.52C51.0794 35.28 50.8394 34.9467 50.6794 34.52C50.5194 34.12 50.4394 33.5867 50.4394 32.92V13.72C50.4394 13 50.586 12.4133 50.8794 11.96C51.1994 11.5067 51.626 11.0933 52.1594 10.72C52.986 10.1867 54.0127 9.76 55.2394 9.44C56.466 9.12 57.8394 8.96 59.3594 8.96ZM59.4394 24.24C62.186 24.24 63.5594 22.6 63.5594 19.32C63.5594 17.6133 63.2127 16.3467 62.5194 15.52C61.8527 14.6933 60.8794 14.28 59.5994 14.28C59.0927 14.28 58.6394 14.3467 58.2394 14.48C57.8394 14.5867 57.4927 14.72 57.1994 14.88V23.68C57.5194 23.84 57.866 23.9733 58.2394 24.08C58.6127 24.1867 59.0127 24.24 59.4394 24.24ZM96.0378 28.84C95.7445 28.92 95.2778 29 94.6378 29.08C94.0245 29.16 93.4111 29.2 92.7978 29.2C92.1845 29.2 91.6378 29.1467 91.1578 29.04C90.7045 28.96 90.3178 28.8 89.9978 28.56C89.6778 28.32 89.4378 27.9867 89.2778 27.56C89.1178 27.1333 89.0378 26.5733 89.0378 25.88V19.64H81.3578V28.84C81.0645 28.92 80.5978 29 79.9578 29.08C79.3445 29.16 78.7311 29.2 78.1178 29.2C77.5045 29.2 76.9578 29.1467 76.4778 29.04C76.0245 28.96 75.6378 28.8 75.3178 28.56C74.9978 28.32 74.7578 27.9867 74.5978 27.56C74.4378 27.1333 74.3578 26.5733 74.3578 25.88V4.76C74.6511 4.70667 75.1178 4.64 75.7578 4.56C76.3978 4.45333 77.0111 4.4 77.5978 4.4C78.2111 4.4 78.7445 4.45333 79.1978 4.56C79.6778 4.64 80.0778 4.8 80.3978 5.04C80.7178 5.28 80.9578 5.61333 81.1178 6.04C81.2778 6.46667 81.3578 7.02667 81.3578 7.72V14.12H89.0378V4.76C89.3311 4.70667 89.7978 4.64 90.4378 4.56C91.0778 4.45333 91.6911 4.4 92.2778 4.4C92.8911 4.4 93.4245 4.45333 93.8778 4.56C94.3578 4.64 94.7578 4.8 95.0778 5.04C95.3978 5.28 95.6378 5.61333 95.7978 6.04C95.9578 6.46667 96.0378 7.02667 96.0378 7.72V28.84ZM120.833 19.28C120.833 20.9333 120.579 22.4133 120.073 23.72C119.566 25 118.846 26.08 117.913 26.96C117.006 27.84 115.913 28.5067 114.633 28.96C113.353 29.4133 111.926 29.64 110.353 29.64C108.779 29.64 107.353 29.4 106.073 28.92C104.793 28.44 103.686 27.76 102.753 26.88C101.846 25.9733 101.139 24.88 100.633 23.6C100.126 22.32 99.8728 20.88 99.8728 19.28C99.8728 17.7067 100.126 16.28 100.633 15C101.139 13.72 101.846 12.64 102.753 11.76C103.686 10.8533 104.793 10.16 106.073 9.68C107.353 9.2 108.779 8.96 110.353 8.96C111.926 8.96 113.353 9.21333 114.633 9.72C115.913 10.2 117.006 10.8933 117.913 11.8C118.846 12.68 119.566 13.76 120.073 15.04C120.579 16.32 120.833 17.7333 120.833 19.28ZM106.833 19.28C106.833 20.9067 107.139 22.16 107.753 23.04C108.393 23.8933 109.273 24.32 110.393 24.32C111.513 24.32 112.366 23.88 112.953 23C113.566 22.12 113.873 20.88 113.873 19.28C113.873 17.68 113.566 16.4533 112.953 15.6C112.339 14.72 111.473 14.28 110.353 14.28C109.233 14.28 108.366 14.72 107.753 15.6C107.139 16.4533 106.833 17.68 106.833 19.28ZM124.15 9.84C124.417 9.76 124.83 9.68 125.39 9.6C125.977 9.52 126.577 9.48 127.19 9.48C127.777 9.48 128.297 9.52 128.75 9.6C129.23 9.68 129.63 9.84 129.95 10.08C130.27 10.32 130.51 10.6533 130.67 11.08C130.857 11.48 130.95 12.0133 130.95 12.68V21.28C130.95 22.3733 131.217 23.16 131.75 23.64C132.284 24.0933 133.057 24.32 134.07 24.32C134.684 24.32 135.177 24.2667 135.55 24.16C135.95 24.0533 136.257 23.9467 136.47 23.84V9.84C136.737 9.76 137.15 9.68 137.71 9.6C138.297 9.52 138.897 9.48 139.51 9.48C140.097 9.48 140.617 9.52 141.07 9.6C141.55 9.68 141.95 9.84 142.27 10.08C142.59 10.32 142.83 10.6533 142.99 11.08C143.177 11.48 143.27 12.0133 143.27 12.68V24.84C143.27 26.1733 142.71 27.1733 141.59 27.84C140.657 28.4267 139.537 28.8667 138.23 29.16C136.95 29.48 135.55 29.64 134.03 29.64C132.59 29.64 131.257 29.48 130.03 29.16C128.83 28.84 127.79 28.3467 126.91 27.68C126.03 27.0133 125.35 26.16 124.87 25.12C124.39 24.0533 124.15 22.7733 124.15 21.28V9.84ZM163.832 23.2C163.832 25.2267 163.072 26.8133 161.552 27.96C160.032 29.1067 157.792 29.68 154.832 29.68C153.712 29.68 152.672 29.6 151.712 29.44C150.752 29.28 149.925 29.04 149.232 28.72C148.565 28.3733 148.032 27.9467 147.632 27.44C147.258 26.9333 147.072 26.3333 147.072 25.64C147.072 25 147.205 24.4667 147.472 24.04C147.738 23.5867 148.058 23.2133 148.432 22.92C149.205 23.3467 150.085 23.7333 151.072 24.08C152.085 24.4 153.245 24.56 154.552 24.56C155.378 24.56 156.005 24.44 156.432 24.2C156.885 23.96 157.112 23.64 157.112 23.24C157.112 22.8667 156.952 22.5733 156.632 22.36C156.312 22.1467 155.778 21.9733 155.032 21.84L153.832 21.6C151.512 21.1467 149.778 20.44 148.632 19.48C147.512 18.4933 146.952 17.0933 146.952 15.28C146.952 14.2933 147.165 13.4 147.592 12.6C148.018 11.8 148.618 11.1333 149.392 10.6C150.165 10.0667 151.085 9.65333 152.152 9.36C153.245 9.06667 154.445 8.92 155.752 8.92C156.738 8.92 157.658 9 158.512 9.16C159.392 9.29333 160.152 9.50667 160.792 9.8C161.432 10.0933 161.938 10.48 162.312 10.96C162.685 11.4133 162.872 11.96 162.872 12.6C162.872 13.2133 162.752 13.7467 162.512 14.2C162.298 14.6267 162.018 14.9867 161.672 15.28C161.458 15.1467 161.138 15.0133 160.712 14.88C160.285 14.72 159.818 14.5867 159.312 14.48C158.805 14.3467 158.285 14.24 157.752 14.16C157.245 14.08 156.778 14.04 156.352 14.04C155.472 14.04 154.792 14.1467 154.312 14.36C153.832 14.5467 153.592 14.8533 153.592 15.28C153.592 15.5733 153.725 15.8133 153.992 16C154.258 16.1867 154.765 16.36 155.512 16.52L156.752 16.8C159.312 17.3867 161.125 18.2 162.192 19.24C163.285 20.2533 163.832 21.5733 163.832 23.2ZM177.594 29.64C176.021 29.64 174.554 29.4267 173.194 29C171.861 28.5467 170.688 27.88 169.674 27C168.688 26.12 167.901 25.0133 167.314 23.68C166.754 22.3467 166.474 20.7867 166.474 19C166.474 17.24 166.754 15.7333 167.314 14.48C167.901 13.2 168.661 12.16 169.594 11.36C170.528 10.5333 171.594 9.93333 172.794 9.56C173.994 9.16 175.221 8.96 176.474 8.96C177.888 8.96 179.168 9.17333 180.314 9.6C181.488 10.0267 182.488 10.6133 183.314 11.36C184.168 12.1067 184.821 13 185.274 14.04C185.754 15.08 185.994 16.2133 185.994 17.44C185.994 18.3467 185.741 19.04 185.234 19.52C184.728 20 184.021 20.3067 183.114 20.44L173.234 21.92C173.528 22.8 174.128 23.4667 175.034 23.92C175.941 24.3467 176.981 24.56 178.154 24.56C179.248 24.56 180.274 24.4267 181.234 24.16C182.221 23.8667 183.021 23.5333 183.634 23.16C184.061 23.4267 184.421 23.8 184.714 24.28C185.008 24.76 185.154 25.2667 185.154 25.8C185.154 27 184.594 27.8933 183.474 28.48C182.621 28.9333 181.661 29.24 180.594 29.4C179.528 29.56 178.528 29.64 177.594 29.64ZM176.474 13.92C175.834 13.92 175.274 14.0267 174.794 14.24C174.341 14.4533 173.968 14.7333 173.674 15.08C173.381 15.4 173.154 15.7733 172.994 16.2C172.861 16.6 172.781 17.0133 172.754 17.44L179.594 16.32C179.514 15.7867 179.221 15.2533 178.714 14.72C178.208 14.1867 177.461 13.92 176.474 13.92Z" fill="#3077C6"/>
</symbol>
<symbol id="arrow" viewBox="0 0 48 48">
  <g filter="url(#filter0_d)">
  <circle cx="24" cy="20" r="20" fill="#F3F3F4"/>
  <path d="M19.9412 29.8235L26.1 21.6118C26.6333 20.9007 26.6333 19.9229 26.1 19.2118L19.9412 11" stroke="#383838" stroke-width="2"/>
  </g>
  <defs>
  <filter id="filter0_d" x="0" y="0" width="48" height="48" filterUnits="userSpaceOnUse" color-interpolation-filters="sRGB">
  <feFlood flood-opacity="0" result="BackgroundImageFix"/>
  <feColorMatrix in="SourceAlpha" type="matrix" values="0 0 0 0 0 0 0 0 0 0 0 0 0 0 0 0 0 0 127 0"/>
  <feOffset dy="4"/>
  <feGaussianBlur stdDeviation="2"/>
  <feColorMatrix type="matrix" values="0 0 0 0 0 0 0 0 0 0 0 0 0 0 0 0 0 0 0.25 0"/>
  <feBlend mode="normal" in2="BackgroundImageFix" result="effect1_dropShadow"/>
  <feBlend mode="normal" in="SourceGraphic" in2="effect1_dropShadow" result="shape"/>
  </filter>
  </defs>
</symbol>
<symbol id="arrow-bottom" viewBox="0 0 48 49">
  <g filter="url(#filter0_d)">
  <circle cx="24" cy="20.0146" r="20" fill="#F3F3F4"/>
  <path d="M15.1765 18L23.3882 24.1588C24.0993 24.6922 25.0771 24.6922 25.7882 24.1588L34 18" stroke="#383838" stroke-width="2"/>
  </g>
  <defs>
  <filter id="filter0_d" x="0" y="0.0146484" width="48" height="48" filterUnits="userSpaceOnUse" color-interpolation-filters="sRGB">
  <feFlood flood-opacity="0" result="BackgroundImageFix"/>
  <feColorMatrix in="SourceAlpha" type="matrix" values="0 0 0 0 0 0 0 0 0 0 0 0 0 0 0 0 0 0 127 0"/>
  <feOffset dy="4"/>
  <feGaussianBlur stdDeviation="2"/>
  <feColorMatrix type="matrix" values="0 0 0 0 0 0 0 0 0 0 0 0 0 0 0 0 0 0 0.25 0"/>
  <feBlend mode="normal" in2="BackgroundImageFix" result="effect1_dropShadow"/>
  <feBlend mode="normal" in="SourceGraphic" in2="effect1_dropShadow" result="shape"/>
  </filter>
  </defs>
</symbol>
<symbol id="loupe-icon" viewBox="0 0 16 16">
  <path d="M11.4351 10.0629H10.7124L10.4563 9.81589C11.3528 8.77301 11.8925 7.4191 11.8925 5.94625C11.8925 2.66209 9.23042 0 5.94625 0C2.66209 0 0 2.66209 0 5.94625C0 9.23042 2.66209 11.8925 5.94625 11.8925C7.4191 11.8925 8.77301 11.3528 9.81589 10.4563L10.0629 10.7124V11.4351L14.6369 16L16 14.6369L11.4351 10.0629ZM5.94625 10.0629C3.66838 10.0629 1.82962 8.22413 1.82962 5.94625C1.82962 3.66838 3.66838 1.82962 5.94625 1.82962C8.22413 1.82962 10.0629 3.66838 10.0629 5.94625C10.0629 8.22413 8.22413 10.0629 5.94625 10.0629Z" fill="#BFBFBF"/>
</symbol>
<symbol id="user-icon" viewBox="0 0 86 86">
  <circle cx="43" cy="43" r="43" fill="white"/>
  <path d="M46.6518 55.7484C46.6518 53.6923 47.1633 51.7181 48.1248 49.9587C46.7643 49.1915 45.7619 48.6903 45.3425 48.4857C45.2095 48.4243 45.1379 48.2913 45.1379 48.1481V40.0671C46.1506 39.392 46.8257 38.2361 46.8257 36.9268V28.5491C46.8257 24.3858 43.4501 21 39.2766 21H38.3764H37.4763C33.313 21 29.9272 24.3756 29.9272 28.5491V36.9268C29.9272 38.2361 30.6023 39.392 31.615 40.0671V48.1481C31.615 48.2913 31.5331 48.4243 31.4104 48.4857C30.2545 49.0483 24.6592 51.8715 19.473 56.1371C18.5319 56.9043 18 58.0602 18 59.2774V65.016H38.3662H50.9787C50.7025 64.7909 50.4468 64.5454 50.1911 64.2897C47.91 62.0086 46.6518 58.9705 46.6518 55.7484Z" fill="#3077C6"/>
  <path d="M58.7324 46.4807C53.6179 46.4807 49.4648 50.6337 49.4648 55.7482C49.4648 60.8628 53.6179 65.0158 58.7324 65.0158C63.847 65.0158 68 60.8628 68 55.7482C68 50.6337 63.8572 46.4807 58.7324 46.4807ZM64.1539 57.0985H60.0827V61.1697H57.3822V57.0985H53.311V54.398H57.3822V50.3268H60.0827V54.398H64.1539V57.0985Z" fill="#3077C6"/>
</symbol>
<symbol id="close-icon" viewBox="0 0 16 16">
<path d="M16 0.914279L15.0858 0L8 7.08572L0.914279 0L0 0.914279L7.08572 8L0 15.0858L0.914279 16L8 8.91428L15.0858 16L16 15.0858L8.91428 8L16 0.914279Z" fill="#BFBFBF"/>
</symbol>
<symbol id="white-triphouse" viewBox="0 0 54 12">
  <path d="M0.585805 3.60941C0.53214 3.52153 0.482307 3.4017 0.436308 3.24991C0.390309 3.09812 0.36731 2.93835 0.36731 2.77058C0.36731 2.45902 0.432475 2.23533 0.562806 2.09952C0.700803 1.96371 0.877133 1.89581 1.09179 1.89581H6.10569C6.15936 1.98369 6.20919 2.10352 6.25519 2.2553C6.30119 2.40709 6.32419 2.56687 6.32419 2.73463C6.32419 3.0462 6.25519 3.26988 6.11719 3.40569C5.98686 3.5415 5.81437 3.60941 5.5997 3.60941H4.32323V9.14564C4.2389 9.16961 4.10473 9.19357 3.92074 9.21754C3.74441 9.24151 3.56808 9.25349 3.39175 9.25349C3.21542 9.25349 3.05825 9.23751 2.92026 9.20556C2.78993 9.18159 2.67876 9.13366 2.58676 9.06176C2.49477 8.98986 2.42577 8.89 2.37977 8.76218C2.33377 8.63436 2.31077 8.46659 2.31077 8.25889V3.60941H0.585805Z" fill="white"/>
  <path d="M8.64283 9.18159C8.56616 9.20556 8.4435 9.22952 8.27484 9.25349C8.11384 9.27746 7.94518 9.28944 7.76885 9.28944C7.60018 9.28944 7.44685 9.27746 7.30886 9.25349C7.17853 9.22952 7.06736 9.18159 6.97536 9.10969C6.88336 9.03779 6.81053 8.94193 6.75687 8.8221C6.71087 8.69428 6.68787 8.53051 6.68787 8.33079V4.73583C6.68787 4.55208 6.71853 4.3963 6.77987 4.26848C6.84887 4.13267 6.9447 4.01284 7.06736 3.90899C7.19002 3.80513 7.33952 3.71326 7.51585 3.63337C7.69985 3.5455 7.89534 3.4696 8.10234 3.40569C8.30934 3.34178 8.524 3.29385 8.74633 3.26189C8.96866 3.22195 9.19098 3.20198 9.41331 3.20198C9.78131 3.20198 10.0726 3.27787 10.2873 3.42966C10.502 3.57346 10.6093 3.81312 10.6093 4.14865C10.6093 4.26049 10.594 4.37234 10.5633 4.48418C10.5326 4.58803 10.4943 4.6839 10.4483 4.77178C10.2873 4.77178 10.1225 4.77976 9.9538 4.79574C9.78514 4.81172 9.62031 4.83569 9.45931 4.86764C9.29832 4.8996 9.14499 4.93555 8.99932 4.97549C8.86132 5.00745 8.74249 5.04739 8.64283 5.09532V9.18159Z" fill="white"/>
  <path d="M11.3698 1.75201C11.3698 1.44844 11.4656 1.19279 11.6573 0.985086C11.8566 0.777377 12.1173 0.673523 12.4393 0.673523C12.7613 0.673523 13.0181 0.777377 13.2098 0.985086C13.4091 1.19279 13.5088 1.44844 13.5088 1.75201C13.5088 2.05558 13.4091 2.31123 13.2098 2.51893C13.0181 2.72664 12.7613 2.8305 12.4393 2.8305C12.1173 2.8305 11.8566 2.72664 11.6573 2.51893C11.4656 2.31123 11.3698 2.05558 11.3698 1.75201ZM13.4168 9.18159C13.3324 9.19757 13.2059 9.21754 13.0373 9.24151C12.8763 9.27346 12.7114 9.28944 12.5428 9.28944C12.3741 9.28944 12.2208 9.27746 12.0828 9.25349C11.9525 9.22952 11.8413 9.18159 11.7493 9.10969C11.6573 9.03779 11.5845 8.94193 11.5308 8.8221C11.4848 8.69428 11.4618 8.53051 11.4618 8.33079V3.45362C11.5461 3.43765 11.6688 3.41767 11.8298 3.39371C11.9985 3.36175 12.1671 3.34578 12.3358 3.34578C12.5044 3.34578 12.6539 3.35776 12.7843 3.38173C12.9223 3.40569 13.0373 3.45362 13.1293 3.52552C13.2213 3.59742 13.2903 3.69728 13.3363 3.8251C13.3899 3.94494 13.4168 4.10471 13.4168 4.30443V9.18159Z" fill="white"/>
  <path d="M17.2258 3.18999C17.6858 3.18999 18.1113 3.2539 18.5023 3.38173C18.9009 3.50156 19.2421 3.68929 19.5257 3.94494C19.8094 4.20058 20.0317 4.52412 20.1927 4.91557C20.3537 5.29904 20.4342 5.75839 20.4342 6.29364C20.4342 6.80492 20.3652 7.2523 20.2272 7.63576C20.0892 8.01922 19.8937 8.34277 19.6407 8.6064C19.3877 8.86204 19.0811 9.05377 18.7208 9.18159C18.3681 9.30941 17.9733 9.37332 17.5363 9.37332C17.2066 9.37332 16.9 9.3214 16.6163 9.21754V11.2068C16.5396 11.2307 16.417 11.2547 16.2483 11.2787C16.0796 11.3106 15.9071 11.3266 15.7308 11.3266C15.5622 11.3266 15.4088 11.3146 15.2708 11.2906C15.1405 11.2667 15.0293 11.2187 14.9373 11.1468C14.8453 11.0749 14.7763 10.9751 14.7303 10.8473C14.6843 10.7274 14.6613 10.5676 14.6613 10.3679V4.61599C14.6613 4.4003 14.7035 4.22454 14.7878 4.08873C14.8798 3.95292 15.0025 3.8291 15.1558 3.71725C15.3935 3.55748 15.6887 3.42966 16.0413 3.33379C16.394 3.23793 16.7888 3.18999 17.2258 3.18999ZM17.2488 7.76757C18.0384 7.76757 18.4333 7.27626 18.4333 6.29364C18.4333 5.78236 18.3336 5.40289 18.1343 5.15524C17.9426 4.90759 17.6628 4.78376 17.2948 4.78376C17.1491 4.78376 17.0188 4.80373 16.9038 4.84368C16.7888 4.87563 16.6891 4.91557 16.6048 4.96351V7.59981C16.6968 7.64774 16.7965 7.68769 16.9038 7.71964C17.0111 7.7516 17.1261 7.76757 17.2488 7.76757Z" fill="white"/>
  <path d="M27.7706 9.14564C27.6863 9.16961 27.5521 9.19357 27.3681 9.21754C27.1918 9.24151 27.0155 9.25349 26.8391 9.25349C26.6628 9.25349 26.5056 9.23751 26.3677 9.20556C26.2373 9.18159 26.1262 9.13366 26.0342 9.06176C25.9422 8.98986 25.8732 8.89 25.8272 8.76218C25.7812 8.63436 25.7582 8.46659 25.7582 8.25889V6.38951H23.5502V9.14564C23.4659 9.16961 23.3317 9.19357 23.1477 9.21754C22.9714 9.24151 22.7951 9.25349 22.6187 9.25349C22.4424 9.25349 22.2852 9.23751 22.1472 9.20556C22.0169 9.18159 21.9057 9.13366 21.8137 9.06176C21.7217 8.98986 21.6527 8.89 21.6067 8.76218C21.5608 8.63436 21.5378 8.46659 21.5378 8.25889V1.93176C21.6221 1.91578 21.7562 1.89581 21.9402 1.87184C22.1242 1.83989 22.3006 1.82391 22.4692 1.82391C22.6456 1.82391 22.7989 1.83989 22.9292 1.87184C23.0672 1.89581 23.1822 1.94374 23.2742 2.01564C23.3662 2.08754 23.4352 2.1874 23.4812 2.31522C23.5272 2.44304 23.5502 2.61081 23.5502 2.81852V4.73583H25.7582V1.93176C25.8425 1.91578 25.9767 1.89581 26.1607 1.87184C26.3447 1.83989 26.521 1.82391 26.6896 1.82391C26.866 1.82391 27.0193 1.83989 27.1496 1.87184C27.2876 1.89581 27.4026 1.94374 27.4946 2.01564C27.5866 2.08754 27.6556 2.1874 27.7016 2.31522C27.7476 2.44304 27.7706 2.61081 27.7706 2.81852V9.14564Z" fill="white"/>
  <path d="M34.899 6.28166C34.899 6.77696 34.8262 7.22034 34.6805 7.61179C34.5349 7.99526 34.3279 8.3188 34.0596 8.58243C33.7989 8.84606 33.4846 9.04578 33.1166 9.18159C32.7486 9.3174 32.3384 9.38531 31.8861 9.38531C31.4338 9.38531 31.0236 9.31341 30.6556 9.16961C30.2876 9.02581 29.9695 8.8221 29.7011 8.55847C29.4405 8.28685 29.2373 7.95931 29.0917 7.57584C28.946 7.19238 28.8732 6.76099 28.8732 6.28166C28.8732 5.81032 28.946 5.38292 29.0917 4.99946C29.2373 4.61599 29.4405 4.29245 29.7011 4.02882C29.9695 3.7572 30.2876 3.54949 30.6556 3.40569C31.0236 3.26189 31.4338 3.18999 31.8861 3.18999C32.3384 3.18999 32.7486 3.26589 33.1166 3.41767C33.4846 3.56147 33.7989 3.76918 34.0596 4.0408C34.3279 4.30443 34.5349 4.62798 34.6805 5.01144C34.8262 5.3949 34.899 5.81831 34.899 6.28166ZM30.8741 6.28166C30.8741 6.76898 30.9623 7.14445 31.1386 7.40808C31.3226 7.66372 31.5756 7.79154 31.8976 7.79154C32.2196 7.79154 32.4649 7.65973 32.6336 7.3961C32.8099 7.13247 32.8981 6.76099 32.8981 6.28166C32.8981 5.80233 32.8099 5.43485 32.6336 5.1792C32.4573 4.91557 32.2081 4.78376 31.8861 4.78376C31.5641 4.78376 31.3149 4.91557 31.1386 5.1792C30.9623 5.43485 30.8741 5.80233 30.8741 6.28166Z" fill="white"/>
  <path d="M35.8528 3.45362C35.9295 3.42966 36.0483 3.40569 36.2093 3.38173C36.378 3.35776 36.5505 3.34578 36.7268 3.34578C36.8954 3.34578 37.0449 3.35776 37.1753 3.38173C37.3133 3.40569 37.4283 3.45362 37.5203 3.52552C37.6123 3.59742 37.6813 3.69728 37.7273 3.8251C37.7809 3.94494 37.8078 4.10471 37.8078 4.30443V6.88082C37.8078 7.20836 37.8844 7.44403 38.0378 7.58783C38.1911 7.72364 38.4134 7.79154 38.7047 7.79154C38.8811 7.79154 39.0229 7.77556 39.1302 7.74361C39.2452 7.71165 39.3334 7.6797 39.3947 7.64774V3.45362C39.4714 3.42966 39.5902 3.40569 39.7512 3.38173C39.9199 3.35776 40.0924 3.34578 40.2687 3.34578C40.4374 3.34578 40.5869 3.35776 40.7172 3.38173C40.8552 3.40569 40.9702 3.45362 41.0622 3.52552C41.1542 3.59742 41.2232 3.69728 41.2692 3.8251C41.3229 3.94494 41.3497 4.10471 41.3497 4.30443V7.94732C41.3497 8.34676 41.1887 8.64634 40.8667 8.84606C40.5984 9.02182 40.2764 9.15363 39.9007 9.24151C39.5327 9.33737 39.1302 9.38531 38.6932 9.38531C38.2793 9.38531 37.8959 9.33737 37.5433 9.24151C37.1983 9.14564 36.8993 8.99785 36.6463 8.79813C36.3933 8.59841 36.1978 8.34277 36.0598 8.03121C35.9218 7.71165 35.8528 7.32819 35.8528 6.88082V3.45362Z" fill="white"/>
  <path d="M47.2609 7.45601C47.2609 8.06316 47.0424 8.53849 46.6054 8.88201C46.1684 9.22553 45.5245 9.39729 44.6735 9.39729C44.3515 9.39729 44.0525 9.37332 43.7765 9.32539C43.5005 9.27746 43.2628 9.20556 43.0635 9.10969C42.8719 9.00584 42.7185 8.87802 42.6035 8.72623C42.4962 8.57444 42.4425 8.3947 42.4425 8.18699C42.4425 7.99526 42.4809 7.83548 42.5575 7.70766C42.6342 7.57185 42.7262 7.46001 42.8335 7.37213C43.0558 7.49995 43.3088 7.61579 43.5925 7.71964C43.8838 7.81551 44.2173 7.86344 44.593 7.86344C44.8306 7.86344 45.0108 7.82749 45.1335 7.75559C45.2638 7.68369 45.329 7.58783 45.329 7.46799C45.329 7.35615 45.283 7.26828 45.191 7.20436C45.099 7.14045 44.9456 7.08853 44.731 7.04858L44.386 6.97668C43.719 6.84087 43.2207 6.62917 42.891 6.34157C42.569 6.04599 42.408 5.62658 42.408 5.08334C42.408 4.78775 42.4694 4.52013 42.592 4.28046C42.7147 4.0408 42.8872 3.84108 43.1095 3.68131C43.3318 3.52153 43.5963 3.3977 43.903 3.30983C44.2173 3.22195 44.5623 3.17801 44.938 3.17801C45.2216 3.17801 45.4861 3.20198 45.7315 3.24991C45.9845 3.28985 46.203 3.35376 46.3869 3.44164C46.5709 3.52952 46.7166 3.64536 46.8239 3.78915C46.9313 3.92496 46.9849 4.08873 46.9849 4.28046C46.9849 4.46421 46.9504 4.62398 46.8814 4.75979C46.8201 4.88761 46.7396 4.99546 46.6399 5.08334C46.5786 5.0434 46.4866 5.00345 46.3639 4.96351C46.2413 4.91557 46.1071 4.87563 45.9615 4.84368C45.8158 4.80373 45.6663 4.77178 45.513 4.74781C45.3673 4.72384 45.2331 4.71186 45.1105 4.71186C44.8575 4.71186 44.662 4.74382 44.524 4.80773C44.386 4.86365 44.317 4.95552 44.317 5.08334C44.317 5.17122 44.3553 5.24311 44.432 5.29904C44.5087 5.35496 44.6543 5.40689 44.869 5.45482L45.2255 5.5387C45.9615 5.71445 46.4828 5.95811 46.7894 6.26968C47.1038 6.57325 47.2609 6.9687 47.2609 7.45601Z" fill="white"/>
  <path d="M51.2177 9.38531C50.7653 9.38531 50.3437 9.3214 49.9527 9.19357C49.5694 9.05777 49.232 8.85805 48.9407 8.59442C48.657 8.33078 48.4309 7.99925 48.2622 7.59981C48.1012 7.20037 48.0207 6.73303 48.0207 6.19778C48.0207 5.67052 48.1012 5.21915 48.2622 4.84368C48.4309 4.46021 48.6494 4.14865 48.9177 3.90899C49.186 3.66133 49.4927 3.48159 49.8377 3.36974C50.1827 3.24991 50.5353 3.18999 50.8957 3.18999C51.302 3.18999 51.67 3.2539 51.9996 3.38173C52.337 3.50955 52.6245 3.6853 52.8621 3.90899C53.1075 4.13267 53.2953 4.4003 53.4256 4.71186C53.5636 5.02342 53.6326 5.36295 53.6326 5.73043C53.6326 6.00205 53.5598 6.20976 53.4141 6.35356C53.2684 6.49736 53.0653 6.58923 52.8046 6.62917L49.9642 7.07255C50.0485 7.33618 50.221 7.5359 50.4817 7.67171C50.7423 7.79953 51.0413 7.86344 51.3787 7.86344C51.693 7.86344 51.9881 7.8235 52.2641 7.74361C52.5478 7.65573 52.7778 7.55587 52.9541 7.44403C53.0768 7.52392 53.1803 7.63576 53.2646 7.77956C53.3489 7.92336 53.3911 8.07514 53.3911 8.23492C53.3911 8.59442 53.2301 8.86204 52.9081 9.03779C52.6628 9.1736 52.3868 9.26547 52.0801 9.31341C51.7735 9.36134 51.486 9.38531 51.2177 9.38531ZM50.8957 4.67591C50.7117 4.67591 50.5507 4.70787 50.4127 4.77178C50.2823 4.83569 50.175 4.91957 50.0907 5.02342C50.0064 5.11929 49.9412 5.23113 49.8952 5.35895C49.8568 5.47878 49.8339 5.60261 49.8262 5.73043L51.7926 5.3949C51.7696 5.23513 51.6853 5.07535 51.5396 4.91557C51.394 4.7558 51.1793 4.67591 50.8957 4.67591Z" fill="white"/>
</symbol>
<symbol id="account" viewBox="0 0 54 54">
<path d="M27 0.333374C12.28 0.333374 0.333328 12.28 0.333328 27C0.333328 41.72 12.28 53.6667 27 53.6667C41.72 53.6667 53.6667 41.72 53.6667 27C53.6667 12.28 41.72 0.333374 27 0.333374ZM27 8.33337C31.4267 8.33337 35 11.9067 35 16.3334C35 20.76 31.4267 24.3334 27 24.3334C22.5733 24.3334 19 20.76 19 16.3334C19 11.9067 22.5733 8.33337 27 8.33337ZM27 46.2C20.3333 46.2 14.44 42.7867 11 37.6134C11.08 32.3067 21.6667 29.4 27 29.4C32.3067 29.4 42.92 32.3067 43 37.6134C39.56 42.7867 33.6667 46.2 27 46.2Z" fill="#BFBFBF"/>
<symbol id="night" viewBox="0 0 30 30">
<path d="M25.6101 10.6101V4.38992H19.3899L15 0L10.6101 4.38992H4.38992V10.6101L0 15L4.38992 19.3899V25.6101H10.6101L15 30L19.3899 25.6101H25.6101V19.3899L30 15L25.6101 10.6101ZM15 22.9576C13.8196 22.9576 12.6923 22.6923 11.6844 22.2281C14.4164 20.9682 16.3263 18.2096 16.3263 15C16.3263 11.7905 14.4164 9.03183 11.6844 7.77188C12.6923 7.30769 13.8196 7.04244 15 7.04244C19.3899 7.04244 22.9576 10.6101 22.9576 15C22.9576 19.3899 19.3899 22.9576 15 22.9576Z" fill="white"/>
</symbol>
<symbol id="accountcircle" viewBox="0 0 40 40">
<path d="M20 0C8.96 0 0 8.96 0 20C0 31.04 8.96 40 20 40C31.04 40 40 31.04 40 20C40 8.96 31.04 0 20 0ZM20 6C23.32 6 26 8.68 26 12C26 15.32 23.32 18 20 18C16.68 18 14 15.32 14 12C14 8.68 16.68 6 20 6ZM20 34.4C15 34.4 10.58 31.84 8 27.96C8.06 23.98 16 21.8 20 21.8C23.98 21.8 31.94 23.98 32 27.96C29.42 31.84 25 34.4 20 34.4Z" fill="white"/>
</symbol>
<symbol id="menu-icon" viewBox="0 0 24 16">
<path d="M0 16H24V13.3333H0V16ZM0 9.33333H24V6.66667H0V9.33333ZM0 0V2.66667H24V0H0Z" fill="white"/>
</symbol>
</svg>